HIERARCHY
ROOT Hips
{
	OFFSET 0.000000 0.000000 0.000000
	CHANNELS 6 Xposition Yposition Zposition Zrotation Yrotation Xrotation 
	JOINT LeftUpLeg_virtual
	{
		OFFSET 0.000000 0.000000 0.000000
		CHANNELS 3 Zrotation Yrotation Xrotation
		JOINT LeftUpLeg
		{
			OFFSET 10.205400 -3.823500 0.155100
			CHANNELS 3 Zrotation Yrotation Xrotation
			JOINT LeftLeg
			{
				OFFSET 0.708757 -12.982077 0.567790
				CHANNELS 3 Zrotation Yrotation Xrotation
				JOINT LeftFoot
				{
					OFFSET -0.708756 -10.717838 -2.184338
					CHANNELS 3 Zrotation Yrotation Xrotation
					JOINT LeftToeBase
					{
						OFFSET 0.108149 -7.191104 7.560241
						CHANNELS 3 Zrotation Yrotation Xrotation
						End Site
						{
							OFFSET 0.000000 0.000000 0.000000
						}
					}
				}
			}
		}
	}
	JOINT RightUpLeg_virtual
	{
		OFFSET 0.000000 0.000000 0.000000
		CHANNELS 3 Zrotation Yrotation Xrotation
		JOINT RightUpLeg
		{
			OFFSET -10.205400 -3.823500 0.005500
			CHANNELS 3 Zrotation Yrotation Xrotation
			JOINT RightLeg
			{
				OFFSET -0.708756 -12.982134 0.610632
				CHANNELS 3 Zrotation Yrotation Xrotation
				JOINT RightFoot
				{
					OFFSET 0.708754 -10.717769 -1.945823
					CHANNELS 3 Zrotation Yrotation Xrotation
					JOINT RightToeBase
					{
						OFFSET -0.108140 -7.191069 7.372968
						CHANNELS 3 Zrotation Yrotation Xrotation
						End Site
						{
							OFFSET 0.000000 0.000000 0.000000
						}
					}
				}
			}
		}
	}
	JOINT Spine_virtual
	{
		OFFSET 0.000000 0.000000 0.000000
		CHANNELS 3 Zrotation Yrotation Xrotation
		JOINT Spine
		{
			OFFSET 0.000000 6.876099 0.125700
			CHANNELS 3 Zrotation Yrotation Xrotation
			JOINT Spine1
			{
				OFFSET 0.000000 8.022060 0.146608
				CHANNELS 3 Zrotation Yrotation Xrotation
				JOINT Spine2
				{
					OFFSET 0.000000 9.168068 0.167552
					CHANNELS 3 Zrotation Yrotation Xrotation
					JOINT Neck_virtual
					{
						OFFSET 0.000000 0.000000 0.000000
						CHANNELS 3 Zrotation Yrotation Xrotation
						JOINT Neck
						{
							OFFSET 0.000000 10.314075 0.188496
							CHANNELS 3 Zrotation Yrotation Xrotation
							JOINT Head
							{
								OFFSET 0.000000 7.643700 -2.377400
								CHANNELS 3 Zrotation Yrotation Xrotation
								End Site
								{
									OFFSET 0.000000 0.000000 0.000000
								}
							}
						}
					}
					JOINT LeftShoulder_virtual
					{
						OFFSET 0.000000 0.000000 0.000000
						CHANNELS 3 Zrotation Yrotation Xrotation
						JOINT LeftShoulder
						{
							OFFSET 4.392200 8.824978 0.174984
							CHANNELS 3 Zrotation Yrotation Xrotation
							JOINT LeftArm
							{
								OFFSET 8.771219 -2.981674 -0.026999
								CHANNELS 3 Zrotation Yrotation Xrotation
								JOINT LeftForeArm
								{
									OFFSET 8.512804 0.000000 -0.000000
									CHANNELS 3 Zrotation Yrotation Xrotation
									JOINT LeftHand
									{
										OFFSET 18.484802 0.000000 -0.000000
										CHANNELS 3 Zrotation Yrotation Xrotation
										End Site
										{
											OFFSET 0.000000 0.000000 0.000000
										}
									}
								}
							}
						}
					}
					JOINT RightShoulder_virtual
					{
						OFFSET 0.000000 0.000000 0.000000
						CHANNELS 3 Zrotation Yrotation Xrotation
						JOINT RightShoulder
						{
							OFFSET -4.392200 8.824993 0.141379
							CHANNELS 3 Zrotation Yrotation Xrotation
							JOINT RightArm
							{
								OFFSET -8.771282 -2.981682 -0.094208
								CHANNELS 3 Zrotation Yrotation Xrotation
								JOINT RightForeArm
								{
									OFFSET -8.494598 0.000000 0.000000
									CHANNELS 3 Zrotation Yrotation Xrotation
									JOINT RightHand
									{
										OFFSET -18.483803 0.000000 0.000001
										CHANNELS 3 Zrotation Yrotation Xrotation
										End Site
										{
											OFFSET 0.000000 0.000000 0.000000
										}
									}
								}
							}
						}
					}
				}
			}
		}
	}
}
MOTION
Frames: 9
Frame Time: 0.033333
7.654411 33.746059 49.151249 179.893577 2.014257 179.590890 -5.048915 -5.312488 13.045920 8.237164 1.531794 -49.879915 11.680050 4.337006 46.346259 -1.230612 5.178353 8.120569 0.000000 0.000000 0.000000 2.558208 -4.630092 11.081726 14.794231 13.417531 -29.547320 -1.202808 1.675168 20.381897 -10.021884 -4.721361 4.901252 0.000000 0.000000 0.000000 -0.822546 -1.205538 1.339432 1.094759 7.031741 -9.004583 2.530012 -1.011018 8.558625 0.000715 -0.009208 -0.066210 2.176363 1.616444 16.188885 -4.857782 10.378174 20.342685 0.000000 0.000000 0.000000 3.630036 2.614554 11.494305 20.730068 -21.495357 -13.633981 -56.457719 8.345483 73.330038 -10.509271 -55.240767 21.439815 0.000000 0.000000 0.000000 -0.776024 4.099833 11.128525 33.463446 2.541092 -20.221231 79.517185 10.817070 -3.244940 -172.027207 57.541243 -167.311686 0.000000 0.000000 0.000000 
7.850707 33.721352 49.252857 179.784062 1.107929 179.582271 -5.481022 -5.017790 12.850921 9.199626 1.888441 -50.199339 10.671043 4.568819 46.120883 -1.594212 5.348532 8.014504 0.000000 0.000000 0.000000 2.447762 -4.285358 10.964847 15.319609 13.179552 -29.605793 -1.443614 1.523939 20.387751 -10.907588 -4.587923 5.277989 0.000000 0.000000 0.000000 -1.195139 -0.970564 1.221047 1.281067 6.649991 -8.967613 2.695484 -0.990865 8.451328 0.026761 -0.021405 -0.057116 2.405818 1.606849 15.968878 -4.652663 10.414626 20.656295 0.000000 0.000000 0.000000 3.811064 2.532481 11.273739 20.747673 -21.555754 -13.725042 -57.112143 8.339002 73.605117 -10.908064 -55.117653 21.866122 0.000000 0.000000 0.000000 -0.661666 4.045557 10.872222 33.897064 2.827938 -20.117342 80.705829 9.917977 -4.039488 -172.189766 55.677103 -166.862136 0.000000 0.000000 0.000000 
7.975456 33.674778 49.337807 179.782436 0.502339 179.540579 -5.639686 -4.791598 12.537559 9.864652 2.323685 -50.188940 9.843406 5.110377 46.181784 -1.760294 5.566411 7.902603 0.000000 0.000000 0.000000 2.315485 -4.010006 10.573799 15.978317 12.962464 -29.344634 -1.745774 1.372386 20.358678 -11.497800 -4.355585 5.699368 0.000000 0.000000 0.000000 -1.406352 -0.902058 1.046309 1.529943 6.165797 -8.847437 2.808216 -1.040724 8.240054 0.013832 -0.030478 -0.083511 2.571549 1.608590 15.811032 -4.562787 10.661258 20.816093 0.000000 0.000000 0.000000 3.974832 2.650910 11.077247 20.706446 -21.575946 -13.745109 -57.604641 8.194716 73.937372 -11.252412 -54.851740 22.436531 0.000000 0.000000 0.000000 -0.553610 4.187963 10.702453 34.172410 3.334892 -19.897565 81.286635 9.121320 -4.560601 -172.360124 54.121517 -166.311049 0.000000 0.000000 0.000000 
8.023709 33.620220 49.409744 179.871638 0.161829 179.563624 -5.564899 -4.665550 12.147026 10.065546 2.952917 -50.071482 9.297796 5.774566 46.292509 -1.907372 5.567535 7.797056 0.000000 0.000000 0.000000 2.063936 -3.814918 10.041794 16.680167 12.560935 -28.881055 -2.083783 1.217606 20.280529 -11.775171 -3.985243 6.201410 0.000000 0.000000 0.000000 -1.447773 -0.861322 0.808518 1.885984 5.865998 -8.656039 2.930373 -1.082325 8.079094 0.008162 -0.039606 -0.060469 2.658028 1.582487 15.521099 -4.767871 11.018027 20.748766 0.000000 0.000000 0.000000 4.024600 2.575520 10.840466 20.531306 -21.669011 -13.546787 -57.697292 8.141162 74.227135 -11.110954 -54.353880 22.767667 0.000000 0.000000 0.000000 -0.519676 4.174698 10.500680 34.374979 3.854258 -19.826287 81.674022 8.494083 -5.006514 -172.365220 53.049840 -165.625175 0.000000 0.000000 0.000000 
8.018201 33.573406 49.451752 179.908289 -0.129556 179.584292 -5.405158 -4.624555 11.820526 9.898726 3.557186 -49.892869 9.660532 6.953316 46.309946 -2.434347 5.195526 7.710234 0.000000 0.000000 0.000000 1.817231 -3.551412 9.529635 17.358554 11.905650 -28.399858 -2.428666 1.024057 20.491000 -11.714189 -3.545202 6.389073 0.000000 0.000000 0.000000 -1.400805 -0.834654 0.584456 2.225123 5.644835 -8.393860 2.983424 -1.117091 7.841111 0.001555 0.013794 -0.102079 2.701148 1.288910 15.312466 -5.166213 11.352046 20.445447 0.000000 0.000000 0.000000 4.076669 2.450007 10.817893 20.312151 -21.784410 -13.431967 -57.565108 8.184362 74.103113 -10.731853 -53.662474 22.967974 0.000000 0.000000 0.000000 -0.475521 3.905640 10.310463 34.569998 4.413065 -19.821363 81.800463 8.002894 -5.485810 -172.227496 52.279945 -164.861792 0.000000 0.000000 0.000000 
7.983418 33.556519 49.492645 179.962603 -0.645099 179.486716 -5.165708 -4.455384 11.515661 8.978648 4.309891 -49.708327 9.362633 6.855696 45.853488 -2.302141 5.093634 7.721731 0.000000 0.000000 0.000000 1.656103 -3.337588 9.221698 17.982616 10.991864 -28.155809 -2.913645 0.850823 20.733630 -11.438216 -3.038654 6.508254 0.000000 0.000000 0.000000 -1.263723 -0.817218 0.597508 2.562288 5.432054 -8.054113 2.996070 -1.256301 7.571558 0.064120 -0.018470 -0.063054 2.568635 1.429150 15.127266 -5.802944 11.939158 19.926969 0.000000 0.000000 0.000000 3.968059 2.389256 10.633917 19.953037 -21.642926 -12.993587 -57.086021 8.507029 73.342571 -10.365302 -53.153867 23.232492 0.000000 0.000000 0.000000 -0.577803 3.969713 10.091688 34.806938 5.041772 -19.569808 81.885738 8.128627 -6.074141 -171.781443 51.733687 -163.939703 0.000000 0.000000 0.000000 
7.944147 33.576805 49.539551 179.938711 -1.240115 179.476580 -5.121258 -4.180072 11.149402 8.500631 5.014978 -49.367091 9.290300 7.888367 45.128183 -2.471483 4.627489 7.804190 0.000000 0.000000 0.000000 1.544191 -2.970041 8.756069 18.274113 10.100221 -28.031764 -3.452552 0.530218 21.285176 -11.049037 -2.567686 6.609430 0.000000 0.000000 0.000000 -1.131491 -0.626984 0.455142 2.834427 5.276195 -7.538038 2.895260 -1.428626 7.423611 -0.005870 -0.029286 -0.077599 2.538009 1.138037 14.920169 -6.435747 12.454181 19.043966 0.000000 0.000000 0.000000 3.955091 2.288303 10.553574 19.568605 -21.334775 -12.458378 -56.492013 9.281086 72.103835 -9.977528 -52.999973 23.419788 0.000000 0.000000 0.000000 -0.561661 3.870847 9.942678 35.064467 5.433803 -19.653922 81.403752 8.301865 -7.061620 -171.426287 51.364266 -163.315574 0.000000 0.000000 0.000000 
7.840676 33.617710 49.566994 179.955732 -1.960402 179.421269 -4.945789 -3.887443 10.615519 7.419204 5.497248 -48.691121 9.125753 8.247082 44.129811 -2.237259 4.401560 7.841642 0.000000 0.000000 0.000000 1.572981 -2.386438 8.564951 18.341262 9.024151 -28.424206 -4.119904 0.216534 22.486501 -10.412945 -2.069305 6.412272 0.000000 0.000000 0.000000 -0.907386 -0.371031 0.470623 3.029962 5.280736 -7.069306 2.722023 -1.631256 7.219752 -0.001175 -0.093952 -0.127528 2.281103 1.021030 14.738344 -7.068794 12.739469 17.761985 0.000000 0.000000 0.000000 3.774909 2.131396 10.506445 19.183665 -20.774872 -11.876479 -55.752649 10.747365 70.420917 -9.643550 -53.636745 23.625529 0.000000 0.000000 0.000000 -0.747274 3.586030 9.886453 35.072407 5.634334 -19.848844 80.532930 8.706033 -8.711952 -170.914597 50.907592 -162.810181 0.000000 0.000000 0.000000 
7.623125 33.679825 49.572353 179.997437 -2.705099 179.464149 -4.286557 -3.597206 10.089030 5.204765 5.652278 -47.411796 9.518294 7.782602 43.174848 -2.647210 3.640658 8.003248 0.000000 0.000000 0.000000 1.642206 -2.019338 8.106034 18.062411 7.935806 -28.665758 -4.902395 -0.119168 23.916841 -9.493770 -1.519661 5.923023 0.000000 0.000000 0.000000 -0.636279 -0.266747 0.449036 3.132557 5.255586 -6.719104 2.511920 -1.715331 6.956823 0.007849 -0.029429 -0.043747 1.931955 0.954109 14.729359 -7.361743 12.841739 16.584691 0.000000 0.000000 0.000000 3.531912 2.064542 10.644174 18.772874 -20.108990 -11.261859 -54.792269 12.635974 68.860301 -9.525662 -55.066344 23.977487 0.000000 0.000000 0.000000 -1.062472 3.556110 9.837753 34.882534 5.455709 -20.259166 79.067219 9.295066 -11.328189 -170.636786 50.212726 -162.813651 0.000000 0.000000 0.000000 
